<svg width="49" height="48" viewBox="0 0 49 48" fill="none" xmlns="http://www.w3.org/2000/svg">
<path fill-rule="evenodd" clip-rule="evenodd" d="M10.7828 32V36C10.7828 37.1046 11.6782 38 12.7828 38H42.7828C43.8873 38 44.7828 37.1046 44.7828 36V20C44.7828 18.8954 43.8873 18 42.7828 18H40.2934V21.6687C40.4014 21.8295 40.5249 21.9798 40.6626 22.1174C40.9411 22.396 41.2719 22.617 41.6358 22.7677C41.9995 22.9184 42.3892 22.9959 42.7828 22.9961V33C42.3947 33.0023 42.0108 33.0798 41.6522 33.2284C41.2882 33.3791 40.9575 33.6001 40.6789 33.8787C40.4003 34.1573 40.1794 34.488 40.0286 34.8519C39.8778 35.2159 39.8002 35.606 39.8002 36H15.7786C15.7738 35.6188 15.6964 35.2419 15.5505 34.8895C15.3997 34.5256 15.1787 34.1949 14.9001 33.9163C14.6216 33.6377 14.2909 33.4167 13.9269 33.266C13.5641 33.1157 13.1754 33.0381 12.7828 33.0376V32H10.7828Z" fill="#1B55AD"/>
<path fill-rule="evenodd" clip-rule="evenodd" d="M21.2935 22C22.3981 22 23.2935 21.1046 23.2935 20C23.2935 18.8954 22.3981 18 21.2935 18C20.1889 18 19.2935 18.8954 19.2935 20C19.2935 21.1046 20.1889 22 21.2935 22ZM21.2935 24C23.5026 24 25.2935 22.2091 25.2935 20C25.2935 17.7909 23.5026 16 21.2935 16C19.0844 16 17.2935 17.7909 17.2935 20C17.2935 22.2091 19.0844 24 21.2935 24Z" fill="#1B55AD"/>
<path fill-rule="evenodd" clip-rule="evenodd" d="M6.29346 10C5.18889 10 4.29346 10.8954 4.29346 12V28C4.29346 29.1046 5.18889 30 6.29346 30H36.2935C37.3981 30 38.2935 29.1046 38.2935 28V12C38.2935 10.8954 37.3981 10 36.2935 10H6.29346ZM9.29163 12H33.2946C33.2951 12.3926 33.3727 12.7814 33.523 13.1441C33.6737 13.5081 33.8947 13.8388 34.1733 14.1174C34.4519 14.396 34.7826 14.617 35.1465 14.7677C35.5102 14.9184 35.8999 14.9959 36.2935 14.9961V25.0001C35.9055 25.0023 35.5215 25.0798 35.1629 25.2284C34.7989 25.3791 34.4682 25.6001 34.1896 25.8787C33.9111 26.1573 33.6901 26.488 33.5393 26.8519C33.3886 27.2159 33.311 27.606 33.311 28H9.28927C9.28449 27.6188 9.20711 27.2419 9.06114 26.8895C8.91038 26.5256 8.6894 26.1949 8.41083 25.9163C8.13225 25.6377 7.80153 25.4167 7.43756 25.266C7.0748 25.1157 6.68608 25.0381 6.29346 25.0376V15C6.6868 14.9998 7.07627 14.9222 7.43968 14.7716C7.80366 14.6209 8.13437 14.3999 8.41295 14.1213C8.69153 13.8427 8.9125 13.512 9.06327 13.1481C9.21403 12.7841 9.29163 12.394 9.29163 12Z" fill="#1B55AD"/>
</svg>
