<svg width="137" height="81" viewBox="0 0 137 81" fill="none" xmlns="http://www.w3.org/2000/svg">
<path d="M17.875 23.2538C4.97059 28.3868 1 44.2135 1 44.2135V81H136V29.67C136 29.67 122.103 66.4565 111.184 67.7398C100.265 69.0231 81.4044 1.43854 70.4853 1.01079C59.5662 0.583039 63.0404 12.9878 63.5368 18.1208C64.0331 23.2538 59.5662 34.803 52.6176 39.936C45.6691 45.069 30.7794 18.1208 17.875 23.2538Z" fill="url(#paint0_linear_25_2691)"/>
<path d="M1 44.2135C1 44.2135 4.97059 28.3868 17.875 23.2538C30.7794 18.1208 45.6691 45.069 52.6176 39.936C59.5662 34.803 64.0331 23.2538 63.5368 18.1208C63.0404 12.9878 59.5662 0.583039 70.4853 1.01079C81.4044 1.43854 100.265 69.0231 111.184 67.7398C122.103 66.4565 136 29.67 136 29.67" stroke="#2F80ED" stroke-width="0.910784"/>
<defs>
<linearGradient id="paint0_linear_25_2691" x1="50.6412" y1="-22.3043" x2="64.2668" y2="56.394" gradientUnits="userSpaceOnUse">
<stop stop-color="#2F80ED"/>
<stop offset="1" stop-color="#D9D9D9" stop-opacity="0"/>
</linearGradient>
</defs>
</svg>
