<svg width="49" height="48" viewBox="0 0 49 48" fill="none" xmlns="http://www.w3.org/2000/svg">
<mask id="mask0_17_419" style="mask-type:alpha" maskUnits="userSpaceOnUse" x="4" y="10" width="41" height="29">
<path d="M23.2935 12H5.29346V14H23.2935V12Z" fill="white"/>
<path fill-rule="evenodd" clip-rule="evenodd" d="M23.2935 16H6.29346V37H5.29346C4.74118 37 4.29346 37.4477 4.29346 38C4.29346 38.5523 4.74118 39 5.29346 39H43.2935C43.8458 39 44.2935 38.5523 44.2935 38C44.2935 37.4477 43.8458 37 43.2935 37H42.2935V16H39.2935V18H40.2935V37H37.2935V25H29.2935V37H8.29346V18H23.2935V16ZM35.2935 37H31.2935V27H35.2935V37Z" fill="white"/>
<path d="M39.2935 14V12H43.2935V14H39.2935Z" fill="white"/>
<path fill-rule="evenodd" clip-rule="evenodd" d="M11.2935 32V25H26.2935V32H27.2935V34H10.2935V32H11.2935ZM13.2935 27H24.2935V32H13.2935V27Z" fill="white"/>
<path d="M35.2935 10H27.2935C26.1889 10 25.2935 10.8954 25.2935 12V20C25.2935 21.1046 26.1889 22 27.2935 22H35.2935C36.3981 22 37.2935 21.1046 37.2935 20V12C37.2935 10.8954 36.3981 10 35.2935 10Z" fill="white"/>
</mask>
<g mask="url(#mask0_17_419)">
<path d="M32.2935 14V13H30.2935V14H32.2935ZM29.2935 15H28.2935V17H29.2935V15ZM6.29346 13V18H8.29346V13H6.29346ZM40.2935 13V18H42.2935V13H40.2935ZM30.2935 14V18H32.2935V14H30.2935ZM29.2935 17H33.2935V15H29.2935V17ZM23.2935 12H25.2935V10H23.2935V12ZM5.29346 12V10H3.29346V12H5.29346ZM5.29346 14H3.29346V16H5.29346V14ZM23.2935 14V16H25.2935V14H23.2935ZM23.2935 16H25.2935V14H23.2935V16ZM6.29346 16V14H4.29346V16H6.29346ZM6.29346 37V39H8.29346V37H6.29346ZM42.2935 37H40.2935V39H42.2935V37ZM42.2935 16H44.2935V14H42.2935V16ZM39.2935 16V14H37.2935V16H39.2935ZM39.2935 18H37.2935V20H39.2935V18ZM40.2935 18H42.2935V16H40.2935V18ZM40.2935 37V39H42.2935V37H40.2935ZM37.2935 37H35.2935V39H37.2935V37ZM37.2935 25H39.2935V23H37.2935V25ZM29.2935 25V23H27.2935V25H29.2935ZM29.2935 37V39H31.2935V37H29.2935ZM8.29346 37H6.29346V39H8.29346V37ZM8.29346 18V16H6.29346V18H8.29346ZM23.2935 18V20H25.2935V18H23.2935ZM39.2935 12V10H37.2935V12H39.2935ZM39.2935 14H37.2935V16H39.2935V14ZM43.2935 12H45.2935V10H43.2935V12ZM43.2935 14V16H45.2935V14H43.2935ZM31.2935 37H29.2935V39H31.2935V37ZM35.2935 37V39H37.2935V37H35.2935ZM31.2935 27V25H29.2935V27H31.2935ZM35.2935 27H37.2935V25H35.2935V27ZM24.2935 27H26.2935V25H24.2935V27ZM13.2935 27V25H11.2935V27H13.2935ZM24.2935 32V34H26.2935V32H24.2935ZM13.2935 32H11.2935V34H13.2935V32ZM11.2935 32V34H13.2935V32H11.2935ZM11.2935 25V23H9.29346V25H11.2935ZM26.2935 25H28.2935V23H26.2935V25ZM26.2935 32H24.2935V34H26.2935V32ZM27.2935 32H29.2935V30H27.2935V32ZM27.2935 34V36H29.2935V34H27.2935ZM10.2935 34H8.29346V36H10.2935V34ZM10.2935 32V30H8.29346V32H10.2935ZM23.2935 10H5.29346V14H23.2935V10ZM3.29346 12V14H7.29346V12H3.29346ZM5.29346 16H23.2935V12H5.29346V16ZM25.2935 14V12H21.2935V14H25.2935ZM5.29346 39H6.29346V35H5.29346V39ZM6.29346 38C6.29346 38.5523 5.84575 39 5.29346 39V35C3.63661 35 2.29346 36.3431 2.29346 38H6.29346ZM5.29346 37C5.84575 37 6.29346 37.4477 6.29346 38H2.29346C2.29346 39.6569 3.63661 41 5.29346 41V37ZM42.2935 38C42.2935 37.4477 42.7412 37 43.2935 37V41C44.9504 41 46.2935 39.6569 46.2935 38H42.2935ZM43.2935 39C42.7412 39 42.2935 38.5523 42.2935 38H46.2935C46.2935 36.3431 44.9504 35 43.2935 35V39ZM42.2935 39H43.2935V35H42.2935V39ZM37.2935 16V18H41.2935V16H37.2935ZM39.2935 20H40.2935V16H39.2935V20ZM38.2935 18V37H42.2935V18H38.2935ZM40.2935 35H37.2935V39H40.2935V35ZM29.2935 35H8.29346V39H29.2935V35ZM10.2935 37V18H6.29346V37H10.2935ZM8.29346 20H23.2935V16H8.29346V20ZM25.2935 18V16H21.2935V18H25.2935ZM37.2935 12V14H41.2935V12H37.2935ZM43.2935 10H39.2935V14H43.2935V10ZM45.2935 14V12H41.2935V14H45.2935ZM39.2935 16H43.2935V12H39.2935V16ZM31.2935 39H35.2935V35H31.2935V39ZM29.2935 27V37H33.2935V27H29.2935ZM35.2935 25H31.2935V29H35.2935V25ZM37.2935 37V27H33.2935V37H37.2935ZM24.2935 25H13.2935V29H24.2935V25ZM26.2935 32V27H22.2935V32H26.2935ZM13.2935 34H24.2935V30H13.2935V34ZM11.2935 27V32H15.2935V27H11.2935ZM27.2935 30H26.2935V34H27.2935V30ZM29.2935 34V32H25.2935V34H29.2935ZM8.29346 32V34H12.2935V32H8.29346ZM11.2935 30H10.2935V34H11.2935V30ZM27.2935 12H35.2935V8H27.2935V12ZM35.2935 12V20H39.2935V12H35.2935ZM35.2935 20H27.2935V24H35.2935V20ZM27.2935 20V12H23.2935V20H27.2935ZM27.2935 20H23.2935C23.2935 22.2091 25.0844 24 27.2935 24V20ZM35.2935 20V24C37.5026 24 39.2935 22.2091 39.2935 20H35.2935ZM35.2935 12H39.2935C39.2935 9.79086 37.5026 8 35.2935 8V12ZM27.2935 8C25.0844 8 23.2935 9.79086 23.2935 12H27.2935V8ZM6.29346 18H23.2935V14H6.29346V18ZM8.29346 37V16H4.29346V37H8.29346ZM43.2935 37H5.29346V41H43.2935V37ZM40.2935 16V37H44.2935V16H40.2935ZM39.2935 18H42.2935V14H39.2935V18ZM39.2935 37V25H35.2935V37H39.2935ZM37.2935 23H29.2935V27H37.2935V23ZM27.2935 25V37H31.2935V25H27.2935ZM9.29346 25V32H13.2935V25H9.29346ZM26.2935 23H11.2935V27H26.2935V23ZM28.2935 32V25H24.2935V32H28.2935ZM10.2935 36H27.2935V32H10.2935V36Z" fill="#1B55AD"/>
</g>
</svg>
