<svg width="33" height="33" viewBox="0 0 33 33" fill="none" xmlns="http://www.w3.org/2000/svg">
<g clip-path="url(#clip0_17_373)">
<path d="M19.5 0.202087C19.7652 0.202087 20.0196 0.307444 20.2071 0.494981C20.3946 0.682517 20.5 0.936871 20.5 1.20209C20.5 1.4673 20.6054 1.72166 20.7929 1.90919C20.9804 2.09673 21.2348 2.20209 21.5 2.20209C21.7652 2.20209 22.0196 2.30744 22.2071 2.49498C22.3946 2.68252 22.5 2.93687 22.5 3.20209V4.20209C22.5 4.4673 22.3946 4.72166 22.2071 4.90919C22.0196 5.09673 21.7652 5.20209 21.5 5.20209H11.5C11.2348 5.20209 10.9804 5.09673 10.7929 4.90919C10.6054 4.72166 10.5 4.4673 10.5 4.20209V3.20209C10.5 2.93687 10.6054 2.68252 10.7929 2.49498C10.9804 2.30744 11.2348 2.20209 11.5 2.20209C11.7652 2.20209 12.0196 2.09673 12.2071 1.90919C12.3946 1.72166 12.5 1.4673 12.5 1.20209C12.5 0.936871 12.6054 0.682517 12.7929 0.494981C12.9804 0.307444 13.2348 0.202087 13.5 0.202087L19.5 0.202087Z" fill="white"/>
<path d="M6.5 5.20209C6.5 4.93687 6.60536 4.68252 6.79289 4.49498C6.98043 4.30744 7.23478 4.20209 7.5 4.20209H8.5C8.76522 4.20209 9.01957 4.09673 9.20711 3.90919C9.39464 3.72166 9.5 3.4673 9.5 3.20209C9.5 2.93687 9.39464 2.68252 9.20711 2.49498C9.01957 2.30744 8.76522 2.20209 8.5 2.20209H7.5C6.70435 2.20209 5.94129 2.51816 5.37868 3.08077C4.81607 3.64338 4.5 4.40644 4.5 5.20209V29.2021C4.5 29.9977 4.81607 30.7608 5.37868 31.3234C5.94129 31.886 6.70435 32.2021 7.5 32.2021H25.5C26.2956 32.2021 27.0587 31.886 27.6213 31.3234C28.1839 30.7608 28.5 29.9977 28.5 29.2021V5.20209C28.5 4.40644 28.1839 3.64338 27.6213 3.08077C27.0587 2.51816 26.2956 2.20209 25.5 2.20209H24.5C24.2348 2.20209 23.9804 2.30744 23.7929 2.49498C23.6054 2.68252 23.5 2.93687 23.5 3.20209C23.5 3.4673 23.6054 3.72166 23.7929 3.90919C23.9804 4.09673 24.2348 4.20209 24.5 4.20209H25.5C25.7652 4.20209 26.0196 4.30744 26.2071 4.49498C26.3946 4.68252 26.5 4.93687 26.5 5.20209V29.2021C26.5 29.4673 26.3946 29.7217 26.2071 29.9092C26.0196 30.0967 25.7652 30.2021 25.5 30.2021H7.5C7.23478 30.2021 6.98043 30.0967 6.79289 29.9092C6.60536 29.7217 6.5 29.4673 6.5 29.2021V5.20209Z" fill="white"/>
<path d="M17.5 13.2021C17.5 12.9369 17.3946 12.6825 17.2071 12.495C17.0196 12.3074 16.7652 12.2021 16.5 12.2021C16.2348 12.2021 15.9804 12.3074 15.7929 12.495C15.6054 12.6825 15.5 12.9369 15.5 13.2021V16.2021H12.5C12.2348 16.2021 11.9804 16.3074 11.7929 16.495C11.6054 16.6825 11.5 16.9369 11.5 17.2021C11.5 17.4673 11.6054 17.7217 11.7929 17.9092C11.9804 18.0967 12.2348 18.2021 12.5 18.2021H15.5V21.2021C15.5 21.4673 15.6054 21.7217 15.7929 21.9092C15.9804 22.0967 16.2348 22.2021 16.5 22.2021C16.7652 22.2021 17.0196 22.0967 17.2071 21.9092C17.3946 21.7217 17.5 21.4673 17.5 21.2021V18.2021H20.5C20.7652 18.2021 21.0196 18.0967 21.2071 17.9092C21.3946 17.7217 21.5 17.4673 21.5 17.2021C21.5 16.9369 21.3946 16.6825 21.2071 16.495C21.0196 16.3074 20.7652 16.2021 20.5 16.2021H17.5V13.2021Z" fill="white"/>
</g>
<defs>
<clipPath id="clip0_17_373">
<rect width="32" height="32" fill="white" transform="translate(0.5 0.202087)"/>
</clipPath>
</defs>
</svg>
