<svg width="32" height="33" viewBox="0 0 32 33" fill="none" xmlns="http://www.w3.org/2000/svg">
<path d="M16 2.86877C8.64802 2.86877 2.66669 8.85011 2.66669 16.2021C2.66669 23.5541 8.64802 29.5354 16 29.5354C23.352 29.5354 29.3334 23.5541 29.3334 16.2021C29.3334 8.85011 23.352 2.86877 16 2.86877ZM16 26.8688C10.1187 26.8688 5.33335 22.0834 5.33335 16.2021C5.33335 10.3208 10.1187 5.53544 16 5.53544C21.8814 5.53544 26.6667 10.3208 26.6667 16.2021C26.6667 22.0834 21.8814 26.8688 16 26.8688Z" fill="white"/>
<path d="M17.3334 9.5354H14.6667V17.5354H22.6667V14.8687H17.3334V9.5354Z" fill="white"/>
</svg>
