<svg width="32" height="33" viewBox="0 0 32 33" fill="none" xmlns="http://www.w3.org/2000/svg">
<path d="M24 26.8688L29.0987 21.7701C29.2487 21.6202 29.3331 21.4169 29.3333 21.2048V14.2021C29.3333 13.6717 29.1226 13.1629 28.7475 12.7879C28.3725 12.4128 27.8638 12.2021 27.3333 12.2021V12.2021C26.8029 12.2021 26.2942 12.4128 25.9191 12.7879C25.544 13.1629 25.3333 13.6717 25.3333 14.2021V20.2021" stroke="white" stroke-width="1.5" stroke-linecap="round" stroke-linejoin="round"/>
<path d="M24 21.5354L25.144 20.3914C25.2041 20.3314 25.2517 20.2601 25.2842 20.1816C25.3167 20.1031 25.3334 20.019 25.3333 19.9341C25.3331 19.8142 25.2996 19.6967 25.2365 19.5948C25.1734 19.4928 25.0832 19.4104 24.976 19.3568L24.3853 19.0621C23.8849 18.8119 23.3184 18.7254 22.7662 18.8149C22.2139 18.9044 21.7037 19.1653 21.308 19.5608L20.1146 20.7541C19.6145 21.2541 19.3334 21.9322 19.3333 22.6394V26.8688M7.99996 26.8688L2.90129 21.7701C2.75122 21.6202 2.66681 21.4169 2.66663 21.2048V14.2021C2.66663 13.6717 2.87734 13.1629 3.25241 12.7879C3.62749 12.4128 4.13619 12.2021 4.66663 12.2021V12.2021C5.19706 12.2021 5.70577 12.4128 6.08084 12.7879C6.45591 13.1629 6.66663 13.6717 6.66663 14.2021V20.2021" stroke="white" stroke-width="1.5" stroke-linecap="round" stroke-linejoin="round"/>
<path d="M7.99996 21.5354L6.85596 20.3914C6.79592 20.3313 6.74829 20.26 6.7158 20.1816C6.68332 20.1031 6.66661 20.019 6.66663 19.9341V19.9341C6.66663 19.6901 6.80529 19.4674 7.02396 19.3567L7.61463 19.0621C8.11504 18.8119 8.68148 18.7254 9.23375 18.8149C9.78603 18.9044 10.2962 19.1653 10.692 19.5607L11.8853 20.7541C12.3854 21.254 12.6665 21.9322 12.6666 22.6394V26.8687M18.2226 16.2021H13.7773V13.0914H10.6666V8.64607H13.7773V5.5354H18.2226V8.64607H21.3333V13.0914H18.2226V16.2021V16.2021Z" stroke="white" stroke-width="1.5" stroke-linecap="round" stroke-linejoin="round"/>
</svg>
