<svg width="101" height="22" viewBox="0 0 101 22" fill="none" xmlns="http://www.w3.org/2000/svg">
<path d="M0.689631 0.636363H6.7848L11.9553 13.2443H12.1939L17.3643 0.636363H23.4595V21H18.6669V8.49148H18.4979L13.6058 20.8707H10.5433L5.65128 8.42188H5.48224V21H0.689631V0.636363ZM33.6687 21.2884C32.0711 21.2884 30.6924 20.9735 29.5323 20.3438C28.3789 19.7074 27.4906 18.8026 26.8675 17.6293C26.2511 16.4493 25.9428 15.0473 25.9428 13.4233C25.9428 11.8456 26.2544 10.4669 26.8775 9.28693C27.5006 8.10038 28.3789 7.17898 29.5124 6.52273C30.646 5.85985 31.9817 5.52841 33.5195 5.52841C34.6067 5.52841 35.601 5.69744 36.5025 6.03551C37.404 6.37358 38.1829 6.87405 38.8391 7.53693C39.4954 8.19981 40.0058 9.01847 40.3704 9.9929C40.735 10.9607 40.9173 12.071 40.9173 13.3239V14.5369H27.6431V11.7131H36.3931C36.3865 11.196 36.2639 10.7353 36.0252 10.331C35.7866 9.92661 35.4585 9.61174 35.0408 9.38636C34.6299 9.15436 34.1559 9.03835 33.619 9.03835C33.0754 9.03835 32.5882 9.16098 32.1573 9.40625C31.7264 9.64489 31.3851 9.97301 31.1332 10.3906C30.8813 10.8016 30.7487 11.2689 30.7354 11.7926V14.6662C30.7354 15.2893 30.8581 15.8362 31.1033 16.3068C31.3486 16.7708 31.6966 17.1321 32.1474 17.3906C32.5981 17.6491 33.1351 17.7784 33.7582 17.7784C34.189 17.7784 34.5801 17.7187 34.9315 17.5994C35.2828 17.4801 35.5844 17.3045 35.8363 17.0724C36.0882 16.8404 36.2771 16.5554 36.4031 16.2173L40.8675 16.3466C40.6819 17.3475 40.2743 18.2192 39.6445 18.9616C39.0214 19.6974 38.2028 20.2708 37.1886 20.6818C36.1744 21.0862 35.0011 21.2884 33.6687 21.2884ZM48.9787 21.2188C47.8518 21.2188 46.8277 20.9271 45.9062 20.3438C44.9848 19.7604 44.2491 18.8854 43.6989 17.7188C43.1487 16.5521 42.8736 15.1037 42.8736 13.3736C42.8736 11.5772 43.1586 10.099 43.7287 8.93892C44.2988 7.77888 45.0445 6.92045 45.9659 6.36364C46.8939 5.80682 47.8916 5.52841 48.9588 5.52841C49.7609 5.52841 50.447 5.66761 51.017 5.94602C51.5871 6.2178 52.0578 6.56913 52.429 7C52.8002 7.43087 53.0819 7.87831 53.2741 8.34233H53.3736V0.636363H58.2358V21H53.4233V18.5241H53.2741C53.0687 18.9948 52.777 19.4356 52.3991 19.8466C52.0213 20.2576 51.5473 20.589 50.9773 20.8409C50.4138 21.0928 49.7476 21.2188 48.9787 21.2188ZM50.669 17.4304C51.259 17.4304 51.7628 17.2647 52.1804 16.9332C52.598 16.5952 52.9195 16.1212 53.1449 15.5114C53.3703 14.9015 53.483 14.1856 53.483 13.3636C53.483 12.5284 53.3703 11.8092 53.1449 11.206C52.9261 10.6027 52.6046 10.1387 52.1804 9.81392C51.7628 9.48911 51.259 9.3267 50.669 9.3267C50.0658 9.3267 49.5554 9.49242 49.1378 9.82386C48.7202 10.1553 48.402 10.6226 48.1832 11.2259C47.9711 11.8291 47.8651 12.5417 47.8651 13.3636C47.8651 14.1856 47.9744 14.9015 48.1932 15.5114C48.4119 16.1212 48.7268 16.5952 49.1378 16.9332C49.5554 17.2647 50.0658 17.4304 50.669 17.4304Z" fill="#1E1E1E"/>
<path d="M61.3107 21V0.636363H69.7227C71.2473 0.636363 72.5631 0.934659 73.6701 1.53125C74.7837 2.12121 75.6422 2.94649 76.2454 4.0071C76.8486 5.06108 77.1502 6.28741 77.1502 7.68608C77.1502 9.09138 76.842 10.321 76.2255 11.375C75.6156 12.4223 74.744 13.2344 73.6104 13.8111C72.4769 14.3878 71.1313 14.6761 69.5735 14.6761H64.3832V10.7983H68.6587C69.4012 10.7983 70.021 10.669 70.5181 10.4105C71.0219 10.152 71.4031 9.79072 71.6616 9.3267C71.9201 8.85606 72.0494 8.30918 72.0494 7.68608C72.0494 7.05634 71.9201 6.51278 71.6616 6.0554C71.4031 5.59138 71.0219 5.23343 70.5181 4.98153C70.0143 4.72964 69.3945 4.60369 68.6587 4.60369H66.2326V21H61.3107ZM83.3349 21.2585C82.3604 21.2585 81.4954 21.0961 80.7397 20.7713C79.9906 20.4399 79.3974 19.9427 78.9599 19.2798C78.529 18.6103 78.3136 17.7718 78.3136 16.7642C78.3136 15.9157 78.4627 15.1998 78.761 14.6165C79.0593 14.0331 79.4703 13.5592 79.994 13.1946C80.5176 12.83 81.1209 12.5549 81.8036 12.3693C82.4864 12.1771 83.2156 12.0478 83.9911 11.9815C84.8595 11.902 85.5588 11.8191 86.0891 11.733C86.6194 11.6402 87.0039 11.5109 87.2425 11.3452C87.4878 11.1728 87.6104 10.9309 87.6104 10.6193V10.5696C87.6104 10.0592 87.4348 9.66477 87.0835 9.38636C86.7321 9.10795 86.2582 8.96875 85.6616 8.96875C85.0186 8.96875 84.5015 9.10795 84.1104 9.38636C83.7193 9.66477 83.4708 10.0492 83.3647 10.5398L78.8803 10.3807C79.0129 9.45265 79.3543 8.62405 79.9045 7.89489C80.4613 7.15909 81.2236 6.58239 82.1914 6.16477C83.1658 5.74053 84.3358 5.52841 85.7013 5.52841C86.6758 5.52841 87.574 5.64441 88.396 5.87642C89.2179 6.1018 89.9338 6.43324 90.5437 6.87074C91.1535 7.30161 91.6242 7.83191 91.9556 8.46165C92.2937 9.09138 92.4627 9.81061 92.4627 10.6193V21H87.8888V18.8722H87.7695C87.4978 19.3892 87.1497 19.8267 86.7255 20.1847C86.3079 20.5426 85.814 20.8111 85.244 20.9901C84.6805 21.169 84.0442 21.2585 83.3349 21.2585ZM84.8363 18.0767C85.36 18.0767 85.8306 17.9706 86.2482 17.7585C86.6725 17.5464 87.0105 17.2547 87.2624 16.8835C87.5143 16.5057 87.6403 16.0682 87.6403 15.571V14.1193C87.5011 14.1922 87.332 14.2585 87.1332 14.3182C86.9409 14.3778 86.7288 14.4342 86.4968 14.4872C86.2648 14.5402 86.0262 14.5866 85.7809 14.6264C85.5356 14.6662 85.3003 14.7027 85.0749 14.7358C84.6175 14.8087 84.2264 14.9214 83.9016 15.0739C83.5835 15.2263 83.3382 15.4252 83.1658 15.6705C83.0001 15.9091 82.9173 16.1941 82.9173 16.5256C82.9173 17.0294 83.0962 17.4138 83.4542 17.679C83.8188 17.9441 84.2795 18.0767 84.8363 18.0767ZM100.298 0.636363V21H95.4357V0.636363H100.298Z" fill="#1B55AD"/>
</svg>
