<svg width="28" height="28" viewBox="0 0 28 28" fill="none" xmlns="http://www.w3.org/2000/svg">
<path d="M12.25 7.00049C12.25 7.96699 13.0335 8.75049 14 8.75049C14.9665 8.75049 15.75 7.96699 15.75 7.00049C15.75 6.03399 14.9665 5.25049 14 5.25049C13.0335 5.25049 12.25 6.03399 12.25 7.00049Z" fill="#828282"/>
<path d="M12.25 14.0005C12.25 14.967 13.0335 15.7505 14 15.7505C14.9665 15.7505 15.75 14.967 15.75 14.0005C15.75 13.034 14.9665 12.2505 14 12.2505C13.0335 12.2505 12.25 13.034 12.25 14.0005Z" fill="#828282"/>
<path d="M12.25 21.0005C12.25 21.967 13.0335 22.7505 14 22.7505C14.9665 22.7505 15.75 21.967 15.75 21.0005C15.75 20.034 14.9665 19.2505 14 19.2505C13.0335 19.2505 12.25 20.034 12.25 21.0005Z" fill="#828282"/>
</svg>
