<svg width="24" height="24" viewBox="0 0 24 24" fill="none" xmlns="http://www.w3.org/2000/svg">
<path d="M20.5919 3.40829C19.4773 2.29373 17.9954 1.67993 16.4192 1.67993C14.843 1.67993 13.3612 2.29373 12.2466 3.40825L7.82783 7.82714C7.82775 7.82722 7.82771 7.82727 7.82763 7.82735L3.40849 12.2464C2.29397 13.361 1.68018 14.8428 1.68018 16.419C1.68018 17.9952 2.29397 19.477 3.40849 20.5916C4.52305 21.7061 6.0049 22.3199 7.58112 22.3199C9.15734 22.3199 10.6392 21.7061 11.7537 20.5916L16.1725 16.1727C16.1726 16.1726 16.1726 16.1726 16.1727 16.1725L20.5918 11.7535C21.7064 10.6389 22.3202 9.15705 22.3202 7.58088C22.3202 6.00466 21.7064 4.52281 20.5919 3.40829ZM11.1722 20.0101C10.213 20.9693 8.93764 21.4976 7.58112 21.4976C6.2246 21.4976 4.9492 20.9693 3.99 20.0101C3.03077 19.0509 2.50247 17.7755 2.50247 16.419C2.50247 15.0624 3.03077 13.7871 3.99 12.8279L8.11832 8.69955L15.3006 15.8818L11.1722 20.0101ZM20.0103 11.172L15.882 15.3003L8.69979 8.11808L12.8282 3.98976C13.7873 3.03052 15.0627 2.50223 16.4192 2.50223C17.7757 2.50223 19.0512 3.03052 20.0103 3.98976C20.9696 4.94895 21.4979 6.22432 21.4979 7.58088C21.4979 8.93739 20.9696 10.2128 20.0103 11.172Z" fill="white" stroke="white" stroke-width="0.3"/>
<path d="M9.95941 11.6663C9.72691 11.4338 9.35013 11.4338 9.11762 11.6663L5.30813 15.4758C5.07568 15.7083 5.07568 16.0852 5.30813 16.3177C5.42438 16.4339 5.57664 16.4919 5.72902 16.4919C5.8814 16.4919 6.03367 16.4339 6.14992 16.3176L9.95941 12.5081C10.1919 12.2757 10.1919 11.8988 9.95941 11.6663Z" fill="white"/>
</svg>
