<svg width="24" height="24" viewBox="0 0 24 24" fill="none" xmlns="http://www.w3.org/2000/svg">
<path d="M20.5919 3.40835C19.4773 2.29379 17.9954 1.67999 16.4192 1.67999C14.843 1.67999 13.3612 2.29379 12.2466 3.40831L7.82783 7.82721C7.82775 7.82729 7.82771 7.82733 7.82763 7.82741L3.40849 12.2465C2.29397 13.361 1.68018 14.8429 1.68018 16.419C1.68018 17.9952 2.29397 19.4771 3.40849 20.5916C4.52305 21.7062 6.0049 22.32 7.58112 22.32C9.15734 22.32 10.6392 21.7062 11.7537 20.5917L16.1725 16.1728C16.1726 16.1727 16.1726 16.1727 16.1727 16.1726L20.5918 11.7535C21.7064 10.639 22.3202 9.15711 22.3202 7.58094C22.3202 6.00472 21.7064 4.52287 20.5919 3.40835ZM11.1722 20.0102C10.213 20.9694 8.93764 21.4977 7.58112 21.4977C6.2246 21.4977 4.9492 20.9694 3.99 20.0102C3.03077 19.051 2.50247 17.7756 2.50247 16.419C2.50247 15.0625 3.03077 13.7872 3.99 12.8279L8.11832 8.69961L15.3006 15.8818L11.1722 20.0102ZM20.0103 11.172L15.882 15.3004L8.69979 8.11814L12.8282 3.98982C13.7873 3.03058 15.0627 2.50229 16.4192 2.50229C17.7757 2.50229 19.0512 3.03058 20.0103 3.98982C20.9696 4.94901 21.4979 6.22438 21.4979 7.58094C21.4979 8.93745 20.9696 10.2128 20.0103 11.172Z" fill="black" stroke="black" stroke-width="0.3"/>
<path d="M9.95941 11.6662C9.72691 11.4338 9.35013 11.4338 9.11762 11.6663L5.30813 15.4758C5.07568 15.7082 5.07568 16.0851 5.30813 16.3176C5.42438 16.4338 5.57664 16.4919 5.72902 16.4919C5.8814 16.4919 6.03367 16.4338 6.14992 16.3176L9.95941 12.5081C10.1919 12.2756 10.1919 11.8988 9.95941 11.6662Z" fill="black"/>
</svg>
